<svg width="202" height="36" viewBox="0 0 202 36" fill="none" xmlns="http://www.w3.org/2000/svg">
<path d="M53.516 28.588C49.708 28.588 46.796 27.482 44.78 25.27C42.764 23.03 41.756 20.02 41.756 16.24C41.756 13.748 42.19 11.592 43.058 9.772C43.926 7.924 45.228 6.496 46.964 5.488C48.728 4.452 50.912 3.934 53.516 3.934C57.352 3.934 60.264 5.054 62.252 7.294C64.268 9.506 65.276 12.488 65.276 16.24C65.276 18.676 64.828 20.832 63.932 22.708C63.036 24.556 61.72 25.998 59.984 27.034C58.248 28.07 56.092 28.588 53.516 28.588ZM53.474 24.472C55.182 24.472 56.596 24.122 57.716 23.422C58.836 22.694 59.676 21.714 60.236 20.482C60.796 19.222 61.076 17.808 61.076 16.24C61.076 14.644 60.796 13.23 60.236 11.998C59.676 10.738 58.836 9.758 57.716 9.058C56.596 8.33 55.182 7.966 53.474 7.966C51.01 7.966 49.134 8.722 47.846 10.234C46.558 11.746 45.914 13.748 45.914 16.24C45.914 17.78 46.18 19.18 46.712 20.44C47.272 21.672 48.112 22.652 49.232 23.38C50.352 24.108 51.766 24.472 53.474 24.472Z" fill="#0E0A07"/>
<path d="M78.9808 28.42C77.9168 28.42 77.0208 28.266 76.2928 27.958C75.5928 27.622 75.0188 27.23 74.5708 26.782C74.1508 26.334 73.8288 25.928 73.6048 25.564C73.4088 25.2 73.2968 24.99 73.2688 24.934H73.1848V35.686H68.7748V10.738H72.5128L73.2268 14.518H73.3108C73.3388 14.434 73.4368 14.196 73.6048 13.804C73.7728 13.412 74.0668 12.978 74.4868 12.502C74.9068 12.026 75.4808 11.62 76.2088 11.284C76.9368 10.92 77.8468 10.738 78.9388 10.738C80.6748 10.738 82.0608 11.116 83.0968 11.872C84.1608 12.628 84.9308 13.678 85.4068 15.022C85.9108 16.366 86.1628 17.92 86.1628 19.684C86.1628 21.476 85.9108 23.03 85.4068 24.346C84.9028 25.634 84.1188 26.642 83.0548 27.37C82.0188 28.07 80.6608 28.42 78.9808 28.42ZM77.6788 24.808C78.8548 24.808 79.7508 24.57 80.3668 24.094C81.0108 23.59 81.4448 22.946 81.6688 22.162C81.9208 21.35 82.0468 20.51 82.0468 19.642C82.0468 18.774 81.9208 17.948 81.6688 17.164C81.4168 16.38 80.9548 15.75 80.2828 15.274C79.6388 14.798 78.7428 14.56 77.5948 14.56C76.5588 14.56 75.7188 14.784 75.0748 15.232C74.4308 15.652 73.9548 16.254 73.6468 17.038C73.3668 17.794 73.2268 18.662 73.2268 19.642C73.2268 20.65 73.3808 21.546 73.6888 22.33C73.9968 23.086 74.4728 23.688 75.1168 24.136C75.7888 24.584 76.6428 24.808 77.6788 24.808Z" fill="#0E0A07"/>
<path d="M97.0067 28.42C95.0187 28.42 93.3947 28 92.1347 27.16C90.9027 26.292 89.9787 25.186 89.3627 23.842C88.7747 22.498 88.4667 21.098 88.4387 19.642C88.4107 17.906 88.7327 16.366 89.4047 15.022C90.1047 13.65 91.0847 12.586 92.3447 11.83C93.6327 11.046 95.1447 10.654 96.8807 10.654C98.4207 10.654 99.8067 10.99 101.039 11.662C102.271 12.334 103.237 13.272 103.937 14.476C104.665 15.68 105.043 17.122 105.071 18.802C105.071 18.858 105.071 19.026 105.071 19.306C105.071 19.558 105.071 19.754 105.071 19.894H92.5127C92.5127 21.49 92.9047 22.722 93.6887 23.59C94.5007 24.43 95.5787 24.85 96.9227 24.85C97.9867 24.85 98.8687 24.584 99.5687 24.052C100.297 23.52 100.731 22.82 100.871 21.952H105.029C104.917 23.156 104.525 24.248 103.853 25.228C103.181 26.208 102.271 26.992 101.123 27.58C99.9747 28.14 98.6027 28.42 97.0067 28.42ZM92.6387 17.962H100.787C100.759 17.766 100.703 17.458 100.619 17.038C100.535 16.618 100.353 16.184 100.073 15.736C99.7927 15.288 99.3867 14.91 98.8547 14.602C98.3227 14.294 97.6367 14.14 96.7967 14.14C95.9567 14.14 95.2707 14.28 94.7387 14.56C94.2067 14.84 93.8007 15.19 93.5207 15.61C93.2407 16.03 93.0307 16.45 92.8907 16.87C92.7507 17.29 92.6667 17.654 92.6387 17.962Z" fill="#0E0A07"/>
<path d="M108.343 28V10.738H111.997L112.711 14.476H112.795C112.823 14.392 112.921 14.168 113.089 13.804C113.285 13.412 113.593 12.978 114.013 12.502C114.461 12.026 115.049 11.62 115.777 11.284C116.533 10.92 117.471 10.738 118.591 10.738C119.823 10.738 120.817 10.948 121.573 11.368C122.357 11.76 122.973 12.292 123.421 12.964C123.869 13.608 124.177 14.336 124.345 15.148C124.541 15.932 124.653 16.716 124.681 17.5C124.737 18.284 124.765 18.998 124.765 19.642V28H120.565V19.6C120.565 18.676 120.467 17.836 120.271 17.08C120.103 16.324 119.753 15.708 119.221 15.232C118.717 14.756 117.919 14.518 116.827 14.518C115.707 14.518 114.853 14.784 114.265 15.316C113.677 15.82 113.271 16.464 113.047 17.248C112.823 18.032 112.711 18.872 112.711 19.768V28H108.343Z" fill="#0E0A07"/>
<path d="M138.45 28.42C137.414 28.42 136.532 28.266 135.804 27.958C135.076 27.622 134.474 27.23 133.998 26.782C133.55 26.334 133.214 25.928 132.99 25.564C132.794 25.2 132.682 24.99 132.654 24.934H132.57L131.856 28H128.16V4.354H132.57V14.518H132.654C132.682 14.434 132.794 14.196 132.99 13.804C133.186 13.412 133.494 12.978 133.914 12.502C134.362 12.026 134.95 11.62 135.678 11.284C136.434 10.92 137.358 10.738 138.45 10.738C140.158 10.738 141.53 11.116 142.566 11.872C143.602 12.6 144.358 13.636 144.834 14.98C145.338 16.296 145.59 17.864 145.59 19.684C145.59 21.42 145.352 22.946 144.876 24.262C144.4 25.578 143.63 26.6 142.566 27.328C141.53 28.056 140.158 28.42 138.45 28.42ZM137.064 24.808C138.212 24.808 139.094 24.57 139.71 24.094C140.354 23.59 140.788 22.946 141.012 22.162C141.264 21.35 141.39 20.51 141.39 19.642C141.39 18.774 141.264 17.948 141.012 17.164C140.76 16.38 140.312 15.75 139.668 15.274C139.024 14.798 138.114 14.56 136.938 14.56C135.902 14.56 135.062 14.784 134.418 15.232C133.774 15.652 133.312 16.254 133.032 17.038C132.752 17.794 132.612 18.662 132.612 19.642C132.612 20.65 132.752 21.546 133.032 22.33C133.34 23.086 133.816 23.688 134.46 24.136C135.132 24.584 136 24.808 137.064 24.808Z" fill="#0E0A07"/>
<path d="M154.583 28.42C153.015 28.42 151.741 28.056 150.761 27.328C149.781 26.572 149.067 25.536 148.619 24.22C148.199 22.876 147.989 21.336 147.989 19.6C147.989 17.836 148.213 16.282 148.661 14.938C149.109 13.594 149.809 12.558 150.761 11.83C151.741 11.074 153.015 10.696 154.583 10.696C155.591 10.696 156.431 10.836 157.103 11.116C157.803 11.396 158.363 11.732 158.783 12.124C159.231 12.516 159.567 12.908 159.791 13.3C160.015 13.664 160.169 13.958 160.253 14.182H160.337V10.738H164.747V28H161.051L160.337 25.186H160.253C160.197 25.382 160.043 25.662 159.791 26.026C159.539 26.362 159.189 26.726 158.741 27.118C158.321 27.482 157.761 27.79 157.061 28.042C156.389 28.294 155.563 28.42 154.583 28.42ZM156.347 24.808C157.383 24.808 158.195 24.584 158.783 24.136C159.371 23.688 159.777 23.072 160.001 22.288C160.225 21.476 160.337 20.594 160.337 19.642C160.337 18.606 160.211 17.71 159.959 16.954C159.735 16.17 159.329 15.568 158.741 15.148C158.181 14.7 157.383 14.476 156.347 14.476C155.255 14.476 154.401 14.714 153.785 15.19C153.197 15.666 152.777 16.296 152.525 17.08C152.301 17.836 152.189 18.69 152.189 19.642C152.189 20.594 152.301 21.462 152.525 22.246C152.777 23.03 153.197 23.66 153.785 24.136C154.401 24.584 155.255 24.808 156.347 24.808Z" fill="#0E0A07"/>
<path d="M175.085 28.42C174.497 28.42 173.853 28.336 173.153 28.168C172.453 28.028 171.753 27.804 171.053 27.496C170.353 27.16 169.709 26.74 169.121 26.236C168.561 25.732 168.113 25.144 167.777 24.472C167.441 23.8 167.273 23.016 167.273 22.12H171.221C171.221 22.148 171.235 22.33 171.263 22.666C171.319 23.002 171.459 23.38 171.683 23.8C171.907 24.192 172.271 24.542 172.775 24.85C173.279 25.158 174.007 25.312 174.959 25.312C175.715 25.312 176.331 25.214 176.807 25.018C177.283 24.822 177.633 24.584 177.857 24.304C178.109 23.996 178.235 23.66 178.235 23.296C178.235 22.68 177.969 22.204 177.437 21.868C176.933 21.504 176.275 21.21 175.463 20.986C174.651 20.762 173.783 20.538 172.859 20.314C171.963 20.062 171.109 19.74 170.297 19.348C169.513 18.956 168.869 18.424 168.365 17.752C167.861 17.052 167.609 16.156 167.609 15.064C167.609 13.44 168.253 12.222 169.541 11.41C170.829 10.598 172.467 10.192 174.455 10.192C175.519 10.192 176.513 10.318 177.437 10.57C178.389 10.794 179.229 11.172 179.957 11.704C180.685 12.208 181.259 12.866 181.679 13.678C182.127 14.462 182.351 15.428 182.351 16.576H178.403C178.431 15.932 178.319 15.414 178.067 15.022C177.843 14.602 177.535 14.28 177.143 14.056C176.751 13.832 176.331 13.678 175.883 13.594C175.435 13.51 175.001 13.468 174.581 13.468C173.573 13.468 172.803 13.65 172.271 14.014C171.767 14.35 171.515 14.798 171.515 15.358C171.515 16.002 171.767 16.506 172.271 16.87C172.803 17.206 173.475 17.486 174.287 17.71C175.127 17.934 176.009 18.172 176.933 18.424C177.857 18.648 178.725 18.956 179.537 19.348C180.349 19.74 181.007 20.272 181.511 20.944C182.043 21.588 182.309 22.456 182.309 23.548C182.309 24.64 182.001 25.55 181.385 26.278C180.797 26.978 179.957 27.51 178.865 27.874C177.801 28.238 176.541 28.42 175.085 28.42Z" fill="#0E0A07"/>
<path d="M193.188 28.42C191.2 28.42 189.576 28 188.316 27.16C187.084 26.292 186.16 25.186 185.544 23.842C184.956 22.498 184.648 21.098 184.62 19.642C184.592 17.906 184.914 16.366 185.586 15.022C186.286 13.65 187.266 12.586 188.526 11.83C189.814 11.046 191.326 10.654 193.062 10.654C194.602 10.654 195.988 10.99 197.22 11.662C198.452 12.334 199.418 13.272 200.118 14.476C200.846 15.68 201.224 17.122 201.252 18.802C201.252 18.858 201.252 19.026 201.252 19.306C201.252 19.558 201.252 19.754 201.252 19.894H188.694C188.694 21.49 189.086 22.722 189.87 23.59C190.682 24.43 191.76 24.85 193.104 24.85C194.168 24.85 195.05 24.584 195.75 24.052C196.478 23.52 196.912 22.82 197.052 21.952H201.21C201.098 23.156 200.706 24.248 200.034 25.228C199.362 26.208 198.452 26.992 197.304 27.58C196.156 28.14 194.784 28.42 193.188 28.42ZM188.82 17.962H196.968C196.94 17.766 196.884 17.458 196.8 17.038C196.716 16.618 196.534 16.184 196.254 15.736C195.974 15.288 195.568 14.91 195.036 14.602C194.504 14.294 193.818 14.14 192.978 14.14C192.138 14.14 191.452 14.28 190.92 14.56C190.388 14.84 189.982 15.19 189.702 15.61C189.422 16.03 189.212 16.45 189.072 16.87C188.932 17.29 188.848 17.654 188.82 17.962Z" fill="#0E0A07"/>
<path d="M0 7C0 3.13401 3.13401 0 7 0H16V16H0V7Z" fill="#0E0A07"/>
<path d="M16 16H32V25C32 28.866 28.866 32 25 32H16V16Z" fill="#0E0A07"/>
<path d="M20 0H32V12L16 16L20 0Z" fill="#0E0A07"/>
<path d="M0 20L16 16L12 32H0V20Z" fill="#0E0A07"/>
</svg>
